<svg xmlns="http://www.w3.org/2000/svg" width="513" height="513" viewBox="0 0 513 513" version="1.1"><path d="M 244 58.108 C 150.843 62.227, 67.637 141.085, 57.883 234.500 C 51.540 295.243, 70.677 356.889, 107.686 394.934 C 110.059 397.373, 112 399.655, 112 400.005 C 112 404.926, 156.105 436.477, 173.593 444.066 C 188.180 450.396, 196.544 453.388, 206 455.659 C 211.775 457.046, 219.200 458.869, 222.500 459.711 C 271.890 472.301, 349.055 451.583, 391.725 414.276 C 394.901 411.499, 398.947 408.024, 400.715 406.554 C 420.666 389.968, 446.439 347.460, 454.407 318 C 455.374 314.425, 456.816 309.268, 457.613 306.541 C 461.737 292.419, 463.217 270.499, 461.836 244 C 460.002 208.799, 447.743 174.481, 425.222 141.500 C 415.874 127.810, 394.825 105.646, 385.913 100.108 C 384.490 99.223, 381.790 97.219, 379.913 95.654 C 348.353 69.336, 298.917 55.679, 244 58.108 M 247 77.049 C 206.485 80.717, 188.995 102.290, 197.997 137.489 C 213.825 199.373, 304.504 199.938, 321.390 138.257 C 331.889 99.911, 304.335 73.126, 257.500 76.150 C 256.400 76.221, 251.675 76.625, 247 77.049 M 136.890 131.470 C 125.322 135.728, 107.585 154.130, 99.235 170.539 C 98.126 172.718, 95.848 177.216, 94.173 180.534 C 77.372 213.814, 87.345 239.942, 121 250.822 C 170.234 266.738, 216.882 219.151, 199.736 170.500 C 196.921 162.513, 193.508 156.438, 188.844 151.109 C 186.730 148.694, 185 146.413, 185 146.041 C 185 144.606, 171.191 135.491, 165 132.839 C 157.588 129.663, 143.643 128.984, 136.890 131.470 M 356.351 131.933 C 318.529 145.720, 304.040 196.360, 328.641 228.780 C 365.626 277.520, 448.027 250.730, 431.204 195.435 C 417.456 150.248, 383.991 121.857, 356.351 131.933 M 255.643 207.018 C 240.837 211.508, 244.428 234, 259.951 234 C 273.241 234, 278.651 211.115, 266.187 207.622 C 261.936 206.431, 258.271 206.221, 255.643 207.018 M 219.316 227.943 C 209.136 232.566, 209.324 247.602, 219.620 252.156 C 235.954 259.381, 246.937 236.131, 231.025 228.013 C 226.177 225.539, 224.632 225.530, 219.316 227.943 M 288.500 227.121 C 282.113 230.270, 278.756 241.646, 282.520 247.390 C 290.092 258.946, 308 253.752, 308 240 C 308 230.260, 296.944 222.958, 288.500 227.121 M 254 247.698 C 251.763 248.850, 249.672 251.124, 248.206 254 C 240.722 268.683, 259.717 280.632, 270.387 267.952 C 279.419 257.218, 266.506 241.258, 254 247.698 M 129.633 266.514 C 121.044 268.269, 112.962 270.870, 111 272.512 C 110.175 273.202, 107.700 274.693, 105.500 275.825 C 79.624 289.136, 80.621 325.261, 107.901 362.834 C 133.930 398.683, 169.963 398.753, 193.059 363 C 222.284 317.761, 181.616 255.896, 129.633 266.514 M 370.238 266.049 C 309.546 276.869, 296.389 355.148, 350.268 384.869 C 380.358 401.468, 416.655 374.044, 431.590 323.427 C 441.466 289.957, 408.591 259.212, 370.238 266.049 M 218.973 268.124 C 206.295 273.800, 211.105 293.009, 225.200 292.996 C 239.830 292.984, 244.080 268.395, 229.715 266.871 C 224.735 266.343, 222.323 266.624, 218.973 268.124 M 290.397 266.686 C 276.653 269.393, 279.981 294, 294.091 294 C 308.242 294, 313.305 274.199, 300.712 268.102 C 296.493 266.060, 294.775 265.824, 290.397 266.686 M 254.071 287.698 C 242.994 293.520, 243.982 309.199, 255.668 313.056 C 261.780 315.073, 269.120 311.537, 272.536 304.931 C 277.920 294.519, 264.652 282.136, 254.071 287.698 M 246.894 336.504 C 205.863 344.681, 181.475 396.382, 204.929 425.469 C 223.037 447.927, 289.992 449.961, 311.826 428.717 C 348.767 392.773, 301.485 325.626, 246.894 336.504" stroke="none" fill="#7fabac" fill-rule="evenodd"/><path d="M 240.500 49.085 C 232.250 49.503, 222.350 50.604, 218.500 51.533 C 214.650 52.461, 209.025 53.800, 206 54.507 C 196.330 56.768, 180.652 61.956, 175.749 64.518 C 173.137 65.883, 170.475 67, 169.835 67 C 169.194 67, 163.560 69.925, 157.314 73.500 C 151.069 77.075, 145.767 80, 145.532 80 C 145.102 80, 134.058 88.220, 128.500 92.677 C 119.347 100.017, 111.882 107.109, 98.160 121.500 C 84.380 135.952, 65.552 167.577, 59.833 185.877 C 58.695 189.519, 56.943 194.750, 55.940 197.500 C 53.893 203.112, 50.725 216.716, 48.837 228 C 47.200 237.784, 47.165 280.856, 48.785 291.307 C 50.477 302.216, 53.776 316.575, 55.953 322.500 C 56.963 325.250, 58.553 329.975, 59.487 333 C 60.420 336.025, 63.167 342.699, 65.592 347.831 C 68.016 352.963, 70 357.396, 70 357.680 C 70 360.085, 89.812 389.197, 96.736 396.968 C 109.780 411.605, 128.500 428.546, 137.738 434.073 C 139.807 435.311, 142.400 437.111, 143.500 438.073 C 144.600 439.036, 149.550 442.027, 154.500 444.720 C 159.450 447.413, 164.400 450.130, 165.500 450.757 C 177.382 457.534, 202.903 465.279, 229 470.027 C 235.881 471.279, 282.750 471.353, 289.500 470.123 C 292.250 469.622, 300.384 468.065, 307.576 466.664 C 319.462 464.348, 322.180 463.598, 328.500 460.896 C 329.600 460.425, 333.875 458.849, 338 457.393 C 365.464 447.700, 400.115 423.603, 420.033 400.345 C 424.140 395.550, 428.443 390.698, 429.596 389.563 C 430.749 388.429, 433.650 384.350, 436.043 380.500 C 438.436 376.650, 441.337 372.150, 442.489 370.500 C 474.709 324.353, 481.647 241.124, 458.243 181.500 C 451.306 163.830, 436.553 137.551, 429.555 130.401 C 428.425 129.246, 424.125 124.343, 420 119.505 C 406.954 104.204, 391.541 91.398, 366.500 75.052 C 364.850 73.975, 359.900 71.476, 355.500 69.499 C 351.100 67.521, 345.700 65.050, 343.500 64.007 C 324.025 54.771, 280.045 46.684, 257.500 48.193 C 256.400 48.267, 248.750 48.668, 240.500 49.085 M 244 58.108 C 150.843 62.227, 67.637 141.085, 57.883 234.500 C 51.540 295.243, 70.677 356.889, 107.686 394.934 C 110.059 397.373, 112 399.655, 112 400.005 C 112 404.926, 156.105 436.477, 173.593 444.066 C 188.180 450.396, 196.544 453.388, 206 455.659 C 211.775 457.046, 219.200 458.869, 222.500 459.711 C 271.890 472.301, 349.055 451.583, 391.725 414.276 C 394.901 411.499, 398.947 408.024, 400.715 406.554 C 420.666 389.968, 446.439 347.460, 454.407 318 C 455.374 314.425, 456.816 309.268, 457.613 306.541 C 461.737 292.419, 463.217 270.499, 461.836 244 C 460.002 208.799, 447.743 174.481, 425.222 141.500 C 415.874 127.810, 394.825 105.646, 385.913 100.108 C 384.490 99.223, 381.790 97.219, 379.913 95.654 C 348.353 69.336, 298.917 55.679, 244 58.108 M 247 77.049 C 206.485 80.717, 188.995 102.290, 197.997 137.489 C 213.825 199.373, 304.504 199.938, 321.390 138.257 C 331.889 99.911, 304.335 73.126, 257.500 76.150 C 256.400 76.221, 251.675 76.625, 247 77.049 M 136.890 131.470 C 125.322 135.728, 107.585 154.130, 99.235 170.539 C 98.126 172.718, 95.848 177.216, 94.173 180.534 C 77.372 213.814, 87.345 239.942, 121 250.822 C 170.234 266.738, 216.882 219.151, 199.736 170.500 C 196.921 162.513, 193.508 156.438, 188.844 151.109 C 186.730 148.694, 185 146.413, 185 146.041 C 185 144.606, 171.191 135.491, 165 132.839 C 157.588 129.663, 143.643 128.984, 136.890 131.470 M 356.351 131.933 C 318.529 145.720, 304.040 196.360, 328.641 228.780 C 365.626 277.520, 448.027 250.730, 431.204 195.435 C 417.456 150.248, 383.991 121.857, 356.351 131.933 M 255.643 207.018 C 240.837 211.508, 244.428 234, 259.951 234 C 273.241 234, 278.651 211.115, 266.187 207.622 C 261.936 206.431, 258.271 206.221, 255.643 207.018 M 219.316 227.943 C 209.136 232.566, 209.324 247.602, 219.620 252.156 C 235.954 259.381, 246.937 236.131, 231.025 228.013 C 226.177 225.539, 224.632 225.530, 219.316 227.943 M 288.500 227.121 C 282.113 230.270, 278.756 241.646, 282.520 247.390 C 290.092 258.946, 308 253.752, 308 240 C 308 230.260, 296.944 222.958, 288.500 227.121 M 254 247.698 C 251.763 248.850, 249.672 251.124, 248.206 254 C 240.722 268.683, 259.717 280.632, 270.387 267.952 C 279.419 257.218, 266.506 241.258, 254 247.698 M 129.633 266.514 C 121.044 268.269, 112.962 270.870, 111 272.512 C 110.175 273.202, 107.700 274.693, 105.500 275.825 C 79.624 289.136, 80.621 325.261, 107.901 362.834 C 133.930 398.683, 169.963 398.753, 193.059 363 C 222.284 317.761, 181.616 255.896, 129.633 266.514 M 370.238 266.049 C 309.546 276.869, 296.389 355.148, 350.268 384.869 C 380.358 401.468, 416.655 374.044, 431.590 323.427 C 441.466 289.957, 408.591 259.212, 370.238 266.049 M 218.973 268.124 C 206.295 273.800, 211.105 293.009, 225.200 292.996 C 239.830 292.984, 244.080 268.395, 229.715 266.871 C 224.735 266.343, 222.323 266.624, 218.973 268.124 M 290.397 266.686 C 276.653 269.393, 279.981 294, 294.091 294 C 308.242 294, 313.305 274.199, 300.712 268.102 C 296.493 266.060, 294.775 265.824, 290.397 266.686 M 254.071 287.698 C 242.994 293.520, 243.982 309.199, 255.668 313.056 C 261.780 315.073, 269.120 311.537, 272.536 304.931 C 277.920 294.519, 264.652 282.136, 254.071 287.698 M 246.894 336.504 C 205.863 344.681, 181.475 396.382, 204.929 425.469 C 223.037 447.927, 289.992 449.961, 311.826 428.717 C 348.767 392.773, 301.485 325.626, 246.894 336.504" stroke="none" fill="#080808" fill-rule="evenodd"/></svg>