<svg xmlns="http://www.w3.org/2000/svg" width="513" height="513" viewBox="0 0 513 513" version="1.1"><path d="M 241 50.063 C 226.651 50.794, 224.133 51.163, 210.500 54.528 C 180.910 61.833, 160.978 70.731, 136.584 87.521 C 105.855 108.673, 70.763 154.178, 61.026 185.500 C 60.342 187.700, 58.867 191.915, 57.748 194.866 C 56.629 197.817, 55.148 202.992, 54.458 206.366 C 53.768 209.740, 52.490 215.696, 51.619 219.603 C 46.943 240.568, 46.955 279.463, 51.643 300.500 C 52.501 304.350, 53.805 310.200, 54.541 313.500 C 62.666 349.915, 86.819 389.056, 118.500 417.147 C 123.450 421.536, 128.625 426.148, 130 427.396 C 146.072 441.982, 185.114 460.061, 212.500 465.599 C 219.100 466.934, 226.750 468.481, 229.500 469.038 C 235.935 470.341, 282.793 470.343, 290 469.040 C 308.336 465.727, 320.658 462.797, 328.066 459.989 C 332.705 458.232, 338.300 456.136, 340.500 455.333 C 357.784 449.022, 386.301 431.278, 402.374 416.836 C 411.830 408.339, 431.397 386.470, 434.443 380.993 C 435.512 379.072, 437.838 375.472, 439.612 372.993 C 443.538 367.509, 452.812 349.064, 456.453 339.500 C 457.919 335.650, 459.712 331.375, 460.437 330 C 475.182 302.045, 474.281 220.559, 458.847 186.159 C 457.281 182.669, 456 179.250, 456 178.561 C 456 176.489, 444.099 154.022, 438.874 146.231 C 436.193 142.233, 434 138.606, 434 138.171 C 434 137.380, 428.416 130.468, 420.938 122 C 418.752 119.525, 415.297 115.534, 413.259 113.132 C 411.222 110.730, 406.167 106.016, 402.027 102.657 C 397.887 99.298, 393.168 95.241, 391.540 93.642 C 385.255 87.468, 351.217 67, 347.235 67 C 346.814 67, 344.902 66.172, 342.985 65.161 C 338.400 62.741, 318.972 56.409, 312 55.063 C 308.975 54.479, 304.025 53.311, 301 52.468 C 296.375 51.179, 264.125 48.749, 257.500 49.190 C 256.400 49.263, 248.975 49.656, 241 50.063 M 233.661 58.528 C 12.630 85.262, -6.090 400.439, 210 456.904 C 301.669 480.857, 407.929 430.724, 444.001 346.502 C 445.178 343.753, 446.724 340.153, 447.435 338.502 C 450.633 331.080, 452.121 327.058, 453.912 321 C 496.629 176.526, 382.505 40.525, 233.661 58.528 M 247.500 77.044 C 213.958 79.874, 197.191 93.584, 196.188 119 C 195.010 148.862, 216.287 176.820, 244.799 182.875 C 252.803 184.574, 255.300 184.141, 249.500 182.059 C 206.824 166.738, 194.591 110.811, 230.336 94.447 C 257.210 82.143, 306.536 88.130, 319.087 105.219 C 321.424 108.401, 322.044 108.858, 321.502 107 C 317.677 93.875, 304.980 83.392, 288.367 79.640 C 282.168 78.240, 260.331 75.772, 257.500 76.151 C 256.950 76.225, 252.450 76.627, 247.500 77.044 M 137.500 131.406 C 124.651 135.493, 107.674 153.968, 96.578 175.936 C 77.406 213.894, 85.246 238.680, 120.184 250.563 C 127.302 252.983, 141.773 255.560, 142.752 254.581 C 143.072 254.262, 142.312 254, 141.064 254 C 114.354 254, 95.349 229.367, 102.052 203.438 C 117.073 145.341, 165.629 123.707, 193.805 162.558 C 199.473 170.374, 200.122 170.166, 195.936 161.874 C 184.187 138.598, 157.929 124.908, 137.500 131.406 M 357.945 131.394 C 294.072 155.933, 307.911 247.678, 376.500 254.406 C 382.500 254.995, 382.500 254.995, 375.220 253.035 C 329.676 240.775, 315.054 188.878, 347.891 156.040 C 372.698 131.233, 398.716 138.249, 421.009 175.756 C 425.627 183.527, 427.150 184.760, 424.268 178.394 C 416.065 160.281, 397.691 138.517, 386.079 133.158 C 379.322 130.040, 363.975 129.078, 357.945 131.394 M 255.643 207.018 C 240.890 211.492, 244.731 233.981, 260.250 233.996 C 264.576 234.001, 264.709 233.717, 262 230.273 C 256.749 223.597, 265.757 214.850, 272.033 220.530 C 274.890 223.115, 274.724 219.823, 271.734 214.594 C 267.961 207.996, 261.871 205.129, 255.643 207.018 M 221.942 226.948 C 209.407 230.752, 207.938 246.989, 219.660 252.174 C 225.615 254.808, 229.844 254.043, 227.537 250.749 C 222.699 243.843, 231.942 234.342, 237.800 240.200 C 239.767 242.167, 239.285 238.480, 236.987 233.974 C 233.972 228.064, 227.785 225.175, 221.942 226.948 M 289.346 227.450 C 278.808 232.036, 278.313 246.705, 288.515 252.118 C 294.024 255.040, 298.953 254.199, 296.537 250.749 C 291.972 244.232, 301.272 234.672, 306.800 240.200 C 309.173 242.573, 308.080 235.793, 305.556 232.485 C 301.194 226.766, 295.199 224.904, 289.346 227.450 M 256.500 246.733 C 241.528 250.482, 244.288 273, 259.720 273 C 264.145 273, 264.145 273, 262.016 270.293 C 257.337 264.345, 264.516 255.487, 270.722 259.553 C 274.192 261.827, 274.448 260.913, 271.963 255.134 C 269.059 248.386, 263.015 245.102, 256.500 246.733 M 130.342 266.469 C 121.862 268.020, 113.095 270.759, 111 272.512 C 110.175 273.202, 107.656 274.693, 105.403 275.826 C 96.105 280.498, 88.178 292.561, 86.559 304.500 C 82.524 334.270, 120.900 390.109, 145.304 389.977 C 149.500 389.955, 149.500 389.955, 143.009 386.457 C 126.800 377.724, 107.735 350.612, 101.934 328.046 C 88.720 276.645, 165.804 256.999, 196.277 304 C 200.015 309.765, 198.962 305.600, 194.770 298.036 C 182.254 275.455, 154.789 261.998, 130.342 266.469 M 374.500 265.673 C 310.595 273.645, 294.472 356.041, 351.163 384.937 C 358.473 388.663, 362.205 389.996, 365.298 389.986 C 369.500 389.973, 369.500 389.973, 362 386.246 C 313.030 361.909, 323.064 289.763, 377 278.391 C 396.018 274.381, 421.290 283.111, 430.113 296.740 C 433.412 301.836, 433.208 299.440, 429.751 292.500 C 421.536 276.007, 394.990 263.117, 374.500 265.673 M 289.500 267.378 C 276.020 273.520, 279.562 293, 294.160 293 C 299.349 293, 299.349 293, 297.174 290.686 C 294.030 287.339, 294.385 283.696, 298.164 280.515 C 301.180 277.978, 302.242 277.844, 306.250 279.494 C 310.525 281.254, 306.694 271.431, 302.031 268.678 C 298.144 266.383, 292.882 265.837, 289.500 267.378 M 217.763 268.565 C 209.960 272.799, 210.091 287.410, 217.967 291.483 C 222.781 293.973, 230.596 293.596, 228 291 C 221.990 284.990, 231.739 274.439, 237.932 280.250 C 239.972 282.163, 238.448 275.142, 236.142 272 C 232.492 267.026, 223.645 265.373, 217.763 268.565 M 255.619 286.998 C 246.408 289.872, 242.992 302.952, 249.817 309.218 C 256.198 315.076, 266.053 315.696, 261.822 309.973 C 257.389 303.977, 263.874 296.139, 270.610 299.351 C 274.237 301.081, 274.237 301.081, 273.573 298.290 C 271.624 290.095, 263.026 284.687, 255.619 286.998 M 247.326 336.482 C 180.544 348.598, 180.250 444.679, 247 442.907 C 248.375 442.871, 246.634 442.219, 243.131 441.459 C 222.264 436.931, 211.024 425.390, 210.170 407.614 C 207.355 349.076, 282.997 324.443, 316.405 373.019 C 320.501 378.974, 320.422 376.535, 316.277 369.045 C 302.455 344.074, 275.540 331.363, 247.326 336.482" stroke="none" fill="#080808" fill-rule="evenodd"/><path d="M 233.661 58.528 C 12.630 85.262, -6.090 400.439, 210 456.904 C 301.669 480.857, 407.929 430.724, 444.001 346.502 C 445.178 343.753, 446.724 340.153, 447.435 338.502 C 450.633 331.080, 452.121 327.058, 453.912 321 C 496.629 176.526, 382.505 40.525, 233.661 58.528 M 247.500 77.044 C 213.958 79.874, 197.191 93.584, 196.188 119 C 194.760 155.198, 223.194 184.290, 260 184.290 C 324.908 184.290, 349.531 93.453, 288.367 79.640 C 282.168 78.240, 260.331 75.772, 257.500 76.151 C 256.950 76.225, 252.450 76.627, 247.500 77.044 M 137.500 131.406 C 124.651 135.493, 107.674 153.968, 96.578 175.936 C 77.286 214.132, 85.500 239.320, 121 250.829 C 174.932 268.315, 221.374 212.059, 195.370 160.743 C 184.143 138.589, 157.455 125.059, 137.500 131.406 M 357.945 131.394 C 306.994 150.969, 302.114 221.404, 349.978 246.398 C 393.604 269.178, 445.645 237.335, 431.528 196.500 C 428.787 188.572, 422.815 174.823, 420.452 171 C 401.787 140.808, 389.688 130.853, 371 130.306 C 364.750 130.124, 360.284 130.496, 357.945 131.394 M 255.643 207.018 C 247.474 209.495, 243.587 219.529, 247.995 226.759 C 254.167 236.882, 266.866 236.198, 271.909 225.471 C 276.752 215.167, 266.631 203.685, 255.643 207.018 M 221.942 226.948 C 209.433 230.744, 207.937 246.988, 219.620 252.156 C 235.847 259.334, 246.834 236.078, 231.026 228.013 C 226.792 225.853, 225.896 225.748, 221.942 226.948 M 289.346 227.450 C 282.354 230.493, 278.890 240.620, 282.660 247.001 C 287.268 254.803, 297.035 255.741, 304.061 249.057 C 314.497 239.129, 302.613 221.679, 289.346 227.450 M 256.500 246.733 C 252.629 247.702, 249.138 251.071, 247.465 255.454 C 241.227 271.787, 265.018 280.517, 272.105 264.495 C 276.320 254.968, 266.816 244.150, 256.500 246.733 M 130.342 266.469 C 121.862 268.020, 113.095 270.759, 111 272.512 C 110.175 273.202, 107.656 274.693, 105.403 275.826 C 75.954 290.624, 83.394 341.543, 120.126 376.580 C 146.157 401.411, 182.902 389.731, 198.998 351.512 C 217.113 308.494, 176.388 258.048, 130.342 266.469 M 374.500 265.673 C 310.463 273.661, 294.453 356.347, 351.392 385.017 C 381.609 400.232, 412.828 376.932, 430.591 325.906 C 442.073 292.924, 412.305 260.957, 374.500 265.673 M 289.500 267.378 C 276.422 273.337, 279.518 293, 293.535 293 C 305.026 293, 311.702 282.613, 306.281 273.167 C 303.098 267.622, 295.056 264.847, 289.500 267.378 M 217.763 268.508 C 209.960 272.905, 210.089 287.409, 217.967 291.483 C 231.842 298.658, 245.382 282.293, 235.095 270.780 C 231.698 266.978, 222.597 265.785, 217.763 268.508 M 255.619 287.034 C 246.743 289.692, 243.144 302.170, 249.331 308.837 C 261.170 321.595, 281.396 305.131, 270.212 291.840 C 266.048 286.891, 261.310 285.331, 255.619 287.034 M 247.326 336.482 C 196.832 345.643, 176.769 415.665, 218.909 435.662 C 234.345 442.987, 263.652 445.423, 284.500 441.113 C 356.770 426.175, 320.206 323.259, 247.326 336.482" stroke="none" fill="#8c8f87" fill-rule="evenodd"/></svg>