<?xml version="1.0" encoding="utf-8"?>
<!-- Svg Vector Icons : http://www.onlinewebfonts.com/icon -->
<!DOCTYPE svg PUBLIC "-//W3C//DTD SVG 1.1//EN" "http://www.w3.org/Graphics/SVG/1.1/DTD/svg11.dtd">
<svg version="1.1" xmlns="http://www.w3.org/2000/svg" xmlns:xlink="http://www.w3.org/1999/xlink" x="0px" y="0px" viewBox="0 0 1000 1000" enable-background="new 0 0 1000 1000" xml:space="preserve">
<metadata> Svg Vector Icons : http://www.onlinewebfonts.com/icon </metadata>
<g><path d="M727.3,272.4H121.6c-31,0-56.3,25.2-56.3,56.3v605c0,31,25.2,56.3,56.3,56.3h605.7c31,0,56.3-25.2,56.3-56.3v-605C783.6,297.6,758.4,272.4,727.3,272.4z M689.2,336.4c13.3,0,24.1,10.8,24.1,24.1c0,13.3-10.8,24.1-24.1,24.1c-13.3,0-24.1-10.8-24.1-24.1C665.1,347.3,675.8,336.4,689.2,336.4z M602.7,336.4c13.3,0,24.1,10.8,24.1,24.1c0,13.3-10.8,24.1-24.1,24.1c-13.3,0-24.1-10.8-24.1-24.1C578.6,347.3,589.4,336.4,602.7,336.4z M719.3,925.7H129.7V444.6h589.6L719.3,925.7L719.3,925.7z M878.4,10H272.6c-31,0-56.3,25.2-56.3,56.3v165.5h64.3v-49.6h589.6v481.1h-20.9v64.3h29c31,0,56.3-25.3,56.3-56.3V66.3C934.6,35.2,909.4,10,878.4,10z M753.8,122.3c-13.3,0-24.1-10.8-24.1-24.1c0-13.3,10.8-24.1,24.1-24.1s24.1,10.8,24.1,24.1C777.9,111.5,767.1,122.3,753.8,122.3z M840.2,122.3c-13.3,0-24.1-10.8-24.1-24.1c0-13.3,10.8-24.1,24.1-24.1c13.3,0,24.1,10.8,24.1,24.1C864.3,111.5,853.5,122.3,840.2,122.3z"/></g>
</svg>